# xmcd CD database file
#
# Track frame offsets:
#	300
#	14612
#	26432
#	40909
#	54319
#	68276
#	83520
#	97762
#	111205
#	123704
#	137083
#	149557
#	162679
#	176533
#	190026
#	202907
#	216650
#	229865
#	244612
#	258721
#	271994
#	287227
#	300672
#	316089
#	329741
#
# Disc length: 4589 seconds
#
# Revision: 0
# Processed by: cddbd v1.5.1PL0 Copyright (c) Steve Scherf et al.
# Submitted via: CDex 1.50
#
DISCID=7011e919
DTITLE=C.Parker, D.Ellington, M.Davis - Le Meilleur du Jazz  -  disk 2
DYEAR=2005
DGENRE=Jazz
TTITLE0=Blowin' the blue away
TTITLE1=If dreams come true
TTITLE2=The Mooche
TTITLE3=Koko
TTITLE4=Rock-a-bye basie
TTITLE5=Georgia of my mind
TTITLE6=Ol' man river
TTITLE7=When Jenny does her low-down dance
TTITLE8=Wa-Wa-Wa
TTITLE9=Stomp off, let's go !
TTITLE10=Sidewalk blues
TTITLE11=Henderson stomp
TTITLE12=Clementine
TTITLE13=From Monday on
TTITLE14=Rumba negro
TTITLE15=That's how I feel today
TTITLE16=High Tension
TTITLE17=Ridin' in rhythm
TTITLE18=Symphony in riffs
TTITLE19=Whoa Babe
TTITLE20=Sugar foot stomp
TTITLE21=Copenhagen
TTITLE22=Woody' n' you
TTITLE23=Ornithology
TTITLE24=Call the police
EXTD=YEAR: 2005
EXTT0=
EXTT1=
EXTT2=
EXTT3=
EXTT4=
EXTT5=
EXTT6=
EXTT7=
EXTT8=
EXTT9=
EXTT10=
EXTT11=
EXTT12=
EXTT13=
EXTT14=
EXTT15=
EXTT16=
EXTT17=
EXTT18=
EXTT19=
EXTT20=
EXTT21=
EXTT22=
EXTT23=
EXTT24=
PLAYORDER=
